<?xml version="1.0" encoding="iso-8859-1"?>
<!-- Generator: Adobe Illustrator 19.0.0, SVG Export Plug-In . SVG Version: 6.00 Build 0)  -->
<svg xmlns="http://www.w3.org/2000/svg" xmlns:xlink="http://www.w3.org/1999/xlink" version="1.1" id="Layer_1" x="0px" y="0px" viewBox="0 0 512 512" style="enable-background:new 0 0 512 512;" xml:space="preserve" width="512px" height="512px">
<g>
	<g>
		<g>
			<path d="M385.32,94.69V10.237H0v290.309h126.68V385h58.062v111.485L296.227,385h67.979v116.763L480.97,385H512V94.69H385.32z      M496.165,369.165h-21.753l-94.371,94.37v-78.536h39.588v-15.835H289.67l-89.092,89.092v-73.257h44.866v-15.835H142.515v-68.619     h23.753V284.71H15.835V26.071h353.65v68.619h-34.309v15.835h160.99V369.165z" fill="#E0F5FF"/>
			<path d="M168.907,213.453c0-28.708,12.993-55.291,35.649-72.932l-9.729-12.494c-26.535,20.664-41.755,51.8-41.755,85.426     c0,33.085,14.823,63.891,40.65,84.506c19.045,15.283,43.036,23.7,67.557,23.7v-15.835c-20.929,0-41.401-7.18-57.662-20.229     C181.558,267.989,168.907,241.695,168.907,213.453z" fill="#E0F5FF"/>
			<path d="M261.278,105.247v15.835c15.233,0,29.798,3.601,43.261,10.687c30.291,16.102,49.11,47.402,49.11,81.685     c0,30.736-15.233,59.381-40.749,76.627l8.867,13.12c29.879-20.194,47.716-53.744,47.716-89.747     c0.001-40.152-22.036-76.811-57.54-95.683C296.155,109.46,279.108,105.247,261.278,105.247z" fill="#E0F5FF"/>
			<polygon points="278.624,164.744 265.046,156.596 226.18,221.371 274.333,221.371 249.049,267.723 262.951,275.306      301.007,205.536 254.149,205.536    " fill="#E0F5FF"/>
			<rect x="182.103" y="205.539" width="21.113" height="15.835" fill="#E0F5FF"/>
			<rect x="319.34" y="205.539" width="21.113" height="15.835" fill="#E0F5FF"/>
			<rect x="44.866" y="63.02" width="226.969" height="15.835" fill="#E0F5FF"/>
			<rect x="44.866" y="115.807" width="110.845" height="15.835" fill="#E0F5FF"/>
			<rect x="44.866" y="168.591" width="95.01" height="15.835" fill="#E0F5FF"/>
			<rect x="81.814" y="221.374" width="52.784" height="15.835" fill="#E0F5FF"/>
			<rect x="44.866" y="221.374" width="21.113" height="15.835" fill="#E0F5FF"/>
			<rect x="377.402" y="142.199" width="89.732" height="15.835" fill="#E0F5FF"/>
			<rect x="387.959" y="194.982" width="79.175" height="15.835" fill="#E0F5FF"/>
			<rect x="377.402" y="247.766" width="89.732" height="15.835" fill="#E0F5FF"/>
			<rect x="345.732" y="300.549" width="84.454" height="15.835" fill="#E0F5FF"/>
			<rect x="451.299" y="300.549" width="21.113" height="15.835" fill="#E0F5FF"/>
		</g>
	</g>
</g>
<g>
</g>
<g>
</g>
<g>
</g>
<g>
</g>
<g>
</g>
<g>
</g>
<g>
</g>
<g>
</g>
<g>
</g>
<g>
</g>
<g>
</g>
<g>
</g>
<g>
</g>
<g>
</g>
<g>
</g>
</svg>
