<?xml version="1.0" encoding="utf-8"?>
<!-- Generator: Adobe Illustrator 12.0.0, SVG Export Plug-In . SVG Version: 6.00 Build 51448)  -->
<!DOCTYPE svg PUBLIC "-//W3C//DTD SVG 1.1//EN" "http://www.w3.org/Graphics/SVG/1.1/DTD/svg11.dtd" [
	<!ENTITY ns_svg "http://www.w3.org/2000/svg">
	<!ENTITY ns_xlink "http://www.w3.org/1999/xlink">
]>
<svg  version="1.1" id="Layer_1" xmlns="&ns_svg;" xmlns:xlink="&ns_xlink;" width="146.132" height="138.087"
	 viewBox="0 0 146.132 138.087" overflow="visible" enable-background="new 0 0 146.132 138.087" xml:space="preserve">
<g>
	<defs>
		<rect id="XMLID_1_" width="146.132" height="138.083"/>
	</defs>
	<clipPath id="XMLID_3_">
		<use xlink:href="#XMLID_1_" />
	</clipPath>
	<path clip-path="url(#XMLID_3_)" fill="#E2F3FB" d="M104.57,47.34c-1.143,1.08-2.657,1.671-4.272,1.671
		c-1.612,0-3.124-0.591-4.267-1.671c-1.142-1.077-1.769-2.507-1.769-4.031c0-1.524,0.627-2.957,1.769-4.034
		c1.143-1.08,2.654-1.671,4.267-1.671c1.615,0,3.13,0.591,4.272,1.671C106.919,41.498,106.919,45.118,104.57,47.34 M100.297,30.27
		c-3.686,0-7.151,1.357-9.756,3.822c-2.608,2.461-4.041,5.735-4.041,9.217c0,3.483,1.433,6.76,4.041,9.217
		c2.604,2.464,6.07,3.822,9.756,3.822c3.685,0,7.147-1.358,9.756-3.822c2.604-2.458,4.041-5.734,4.041-9.217
		c0-3.482-1.437-6.756-4.041-9.217C107.445,31.627,103.982,30.27,100.297,30.27"/>
	<path clip-path="url(#XMLID_3_)" fill="#E2F3FB" d="M29.063,90.75c1.515-1.43,1.515-3.754,0-5.187
		c-1.514-1.433-3.974-1.433-5.488,0L1.136,106.766c-1.514,1.434-1.514,3.757,0,5.187c0.759,0.715,1.751,1.074,2.744,1.074
		c0.995,0,1.986-0.359,2.745-1.074L29.063,90.75z"/>
	<path clip-path="url(#XMLID_3_)" fill="#E2F3FB" d="M35.028,104.985c-1.514-1.43-3.97-1.43-5.488,0L6.154,127.087
		c-1.516,1.43-1.516,3.747,0,5.184c0.755,0.715,1.748,1.07,2.745,1.07c0.992,0,1.985-0.355,2.744-1.07l23.386-22.101
		C36.543,108.738,36.543,106.417,35.028,104.985"/>
	<path clip-path="url(#XMLID_3_)" fill="#E2F3FB" d="M50.093,110.622l-22.439,21.205c-1.515,1.43-1.515,3.754,0,5.187
		c0.757,0.715,1.751,1.074,2.743,1.074s1.984-0.359,2.743-1.074l22.441-21.202c1.513-1.437,1.513-3.757,0-5.189
		C54.063,109.188,51.607,109.192,50.093,110.622"/>
	<path clip-path="url(#XMLID_3_)" fill="#E2F3FB" d="M131.321,26.249c-4.902,12.073-13.937,29.483-29.141,43.851
		c-7.001,6.616-15.15,12.495-24.355,17.583c-0.163,0.078-0.326,0.17-0.477,0.265c-4.927,2.702-10.154,5.177-15.665,7.419
		l-5.491-5.193l11.084-10.474c1.516-1.43,1.516-3.754,0-5.184c-1.514-1.43-3.97-1.43-5.488,0L50.705,84.986L45.213,79.8
		c2.373-5.213,4.989-10.151,7.847-14.806c0.104-0.144,0.194-0.297,0.274-0.45c5.389-8.695,11.612-16.398,18.611-23.017
		c15.208-14.368,33.629-22.9,46.412-27.535c7.761-2.813,14.445-4.566,18.861-5.575C136.152,12.596,134.297,18.912,131.321,26.249
		 M95.029,100.04l-16.636,15.771l4.635-22.515c5.535-3.137,10.706-6.548,15.497-10.232L95.029,100.04z M23.569,64.009l16.695-15.723
		l17.961-3.303c-3.894,4.523-7.507,9.41-10.826,14.642L23.569,64.009z M144.994,1.077c-0.878-0.832-2.132-1.217-3.365-1.031
		c-0.444,0.072-11.205,1.743-25.86,7.034c-8.601,3.101-16.767,6.822-24.28,11.045C82.264,23.318,74,29.3,66.925,35.91L37.62,41.299
		c-0.759,0.14-1.454,0.489-1.999,1.008L9.07,67.312c-1.211,1.139-1.492,2.893-0.688,4.314c0.682,1.215,2.012,1.949,3.425,1.949
		c0.248,0,0.495-0.023,0.743-0.065l29.95-5.513c-1.949,3.617-3.773,7.37-5.469,11.257c-0.594,1.368-0.261,2.941,0.846,3.989
		l7.337,6.929l-6.818,6.443c-1.514,1.43-1.514,3.754,0,5.187c0.759,0.715,1.751,1.073,2.744,1.073s1.986-0.358,2.745-1.073
		l6.818-6.443l7.336,6.93c0.743,0.701,1.735,1.077,2.743,1.077c0.495,0,0.997-0.092,1.474-0.277
		c4.119-1.597,8.086-3.323,11.915-5.164l-5.831,28.302c-0.325,1.583,0.481,3.183,1.991,3.939c0.576,0.287,1.201,0.428,1.819,0.428
		c1.005,0,2.001-0.372,2.745-1.08l26.471-25.087c0.542-0.516,0.91-1.175,1.058-1.89l5.705-27.691
		c6.998-6.688,13.33-14.492,18.826-23.209c4.472-7.103,8.401-14.822,11.691-22.946c5.595-13.855,7.363-24.016,7.436-24.443
		C146.276,3.088,145.872,1.906,144.994,1.077"/>
</g>
</svg>
