<?xml version="1.0" encoding="UTF-8"?>
<!-- Generator: Adobe Illustrator 22.0.1, SVG Export Plug-In . SVG Version: 6.00 Build 0)  -->
<svg version="1.1" id="Calque_1" xmlns="http://www.w3.org/2000/svg" xmlns:xlink="http://www.w3.org/1999/xlink" x="0px" y="0px" viewBox="0 0 551.5 186.5" style="enable-background:new 0 0 551.5 186.5;" xml:space="preserve">
<style type="text/css">
	.st0{fill:#FFFFFF;}
	.st1{fill:#FAAD25;}
</style>
<g>
	<path class="st0" d="M239.4,138.2v-31.5c-1.9,3.4-4.4,5.9-7.5,7.6s-6.6,2.5-10.5,2.5c-3.3,0-6.4-0.7-9.2-2.1s-5.2-3.3-7.3-5.8   c-2-2.4-3.6-5.3-4.8-8.6c-1.1-3.3-1.7-6.8-1.7-10.5c0-3.8,0.6-7.3,1.9-10.5c1.2-3.2,2.9-6.1,5.1-8.5s4.8-4.3,7.8-5.7   c3-1.4,6.2-2.1,9.7-2.1c4,0,7.5,0.9,10.6,2.7c3.1,1.8,5.6,4.2,7.5,7.2v-9h11.7v74.3H239.4z M226.4,105.5c2.9,0,5.4-0.8,7.5-2.4   s4-3.6,5.5-6.1V84.7c-0.4-1.5-1.1-2.8-2-4.1c-0.9-1.3-1.9-2.4-3.2-3.3c-1.2-1-2.5-1.7-3.9-2.2s-2.8-0.8-4.2-0.8   c-2.1,0-4,0.4-5.7,1.3s-3.2,2-4.4,3.5s-2.2,3.2-2.9,5.1s-1.1,3.9-1.1,5.9c0,2.2,0.4,4.2,1.1,6c0.7,1.8,1.7,3.5,2.9,4.9   s2.7,2.5,4.4,3.3C222.3,105.1,224.2,105.5,226.4,105.5z"/>
	<path class="st0" d="M281,116.7c-5.4,0-9.5-1.7-12.3-5.1s-4.2-8.5-4.2-15.2V63.9h13.4v29.6c0,8,2.9,12,8.7,12   c2.6,0,5.1-0.8,7.6-2.3c2.4-1.6,4.4-3.9,6-7.1V63.9h13.4v36.6c0,1.4,0.3,2.4,0.8,3s1.3,0.9,2.5,1v11.3c-1.3,0.3-2.5,0.4-3.3,0.5   c-0.9,0.1-1.7,0.1-2.5,0.1c-2.4,0-4.4-0.5-5.9-1.6s-2.4-2.6-2.7-4.5l-0.3-4.2c-2.3,3.6-5.3,6.2-9,8   C289.4,115.9,285.4,116.7,281,116.7z"/>
	<path class="st0" d="M341.1,116.7c-2.5,0-4.9-0.4-7.1-1.2s-4.1-2-5.7-3.5s-2.9-3.2-3.8-5.2s-1.3-4.2-1.3-6.5c0-2.4,0.6-4.7,1.6-6.8   c1.1-2.1,2.6-3.8,4.6-5.3s4.3-2.6,7.1-3.4c2.7-0.8,5.7-1.2,9-1.2c2.3,0,4.6,0.2,6.9,0.6c2.2,0.4,4.2,1,6,1.7v-3c0-3.4-1-6.1-3-7.9   s-4.9-2.8-8.8-2.8c-2.8,0-5.5,0.5-8.2,1.5s-5.4,2.4-8.2,4.4l-4.1-8.4c6.7-4.4,14-6.6,21.8-6.6c7.5,0,13.4,1.8,17.6,5.5   s6.3,9,6.3,15.9v16.1c0,1.4,0.3,2.4,0.8,3s1.3,0.9,2.5,1v11.3c-2.3,0.5-4.2,0.7-5.9,0.7c-2.5,0-4.5-0.6-5.9-1.7s-2.2-2.6-2.6-4.5   l-0.3-2.9c-2.3,3-5.2,5.3-8.5,6.9C348.5,116,344.9,116.7,341.1,116.7z M344.9,107c2.3,0,4.4-0.4,6.5-1.2c2-0.8,3.6-1.8,4.8-3.2   c1.5-1.1,2.2-2.4,2.2-3.8V93c-1.6-0.6-3.3-1.1-5.2-1.4c-1.9-0.4-3.7-0.5-5.4-0.5c-3.5,0-6.3,0.8-8.5,2.3c-2.2,1.6-3.3,3.5-3.3,5.9   c0,2.2,0.9,4.1,2.6,5.6C340.2,106.3,342.4,107,344.9,107z"/>
	<path class="st0" d="M384.1,43.5h13.4v55.6c0,1.9,0.5,3.4,1.4,4.5s2.3,1.6,4,1.6c0.8,0,1.7-0.1,2.7-0.4s1.9-0.6,2.7-1l1.8,10.1   c-1.8,0.9-3.9,1.5-6.3,2s-4.6,0.7-6.5,0.7c-4.2,0-7.5-1.1-9.8-3.3c-2.3-2.2-3.5-5.4-3.5-9.5L384.1,43.5L384.1,43.5z"/>
	<path class="st0" d="M415.9,56.6V43.5h13.4v13.2h-13.4V56.6z M415.9,115.8V63.9h13.4v51.9H415.9z"/>
	<path class="st0" d="M444.6,76.7h-6.9V66.6h6.9v-3.2c0-2.8,0.5-5.5,1.5-8.1c1-2.6,2.4-4.8,4.2-6.7c1.8-1.9,4.1-3.4,6.7-4.5   s5.6-1.7,9-1.7c3.8,0,7.3,0.6,10.5,1.8s6.2,2.8,9,4.6l-5.3,9.9c-1.7-1.5-3.8-2.7-6.1-3.7c-2.3-0.9-4.7-1.4-7.1-1.4   c-3,0-5.2,0.9-6.7,2.8c-1.4,1.8-2.2,4-2.2,6.4v3.7h28.1v49.1h-13.4v-39H458v39h-13.4V76.7z"/>
	<path class="st0" d="M522.4,116.7c-4.3,0-8.1-0.7-11.5-2.2c-3.4-1.5-6.3-3.4-8.7-5.9c-2.4-2.5-4.2-5.3-5.5-8.6   c-1.3-3.2-1.9-6.6-1.9-10.2s0.6-7.1,1.9-10.3c1.3-3.2,3.1-6.1,5.5-8.6s5.3-4.4,8.7-5.9c3.4-1.5,7.2-2.2,11.5-2.2s8.1,0.7,11.5,2.2   c3.4,1.5,6.2,3.4,8.6,5.9s4.2,5.3,5.5,8.6c1.3,3.2,1.9,6.7,1.9,10.3c0,3.6-0.6,7-1.9,10.2c-1.3,3.2-3.1,6.1-5.4,8.6   c-2.3,2.5-5.2,4.4-8.6,5.9C530.5,116,526.7,116.7,522.4,116.7z M508.7,89.9c0,2.3,0.4,4.4,1.1,6.3s1.7,3.5,2.9,4.9   c1.2,1.4,2.7,2.5,4.4,3.2c1.7,0.8,3.5,1.1,5.4,1.1s3.7-0.4,5.4-1.1c1.7-0.8,3.1-1.8,4.4-3.2c1.2-1.4,2.2-3,2.9-5   c0.7-1.9,1.1-4,1.1-6.3c0-2.2-0.3-4.3-1.1-6.2c-0.7-1.9-1.7-3.6-2.9-5s-2.7-2.5-4.4-3.2c-1.7-0.8-3.5-1.1-5.4-1.1s-3.7,0.4-5.4,1.2   c-1.7,0.8-3.1,1.9-4.4,3.3c-1.2,1.4-2.2,3-2.9,5C509.1,85.6,508.7,87.7,508.7,89.9z"/>
</g>
<path class="st1" d="M11.4,38.3l60.8-35c7-4.1,15.7-4.1,22.7,0l60.8,35.1c7.1,4.1,11.4,11.6,11.4,19.7v70.1  c0,8.1-4.3,15.7-11.4,19.7l-60.7,35c-7,4.1-15.7,4.1-22.7,0l-60.8-35.1C4.4,143.8,0,136.3,0,128.1v-70C0,49.9,4.4,42.4,11.4,38.3z"/>
<path class="st0" d="M145.8,130.9L145.8,130.9L145.8,130.9L145.8,130.9z M78.9,137.6c-22.3-1.8-40.4-19.8-41.8-42.8  C35.6,69.6,54.8,47.9,80,46.3c25.2-1.5,46.9,17.7,48.5,43c0,0.1,0.3,4,0.3,4c1.4,22.8,8.5,28,13.2,32.6c-9.4-6-22-4.1-31.4,3.1  c-0.1,0.1-0.1,0-0.1,0.1c-4.6,3.5-9.8,5.9-15,7.3v0.1c-2.7,0.7-5.5,1.2-8.4,1.3C84.3,138,81.6,137.9,78.9,137.6z"/>
<ellipse class="st1" cx="83.5" cy="92.4" rx="25.1" ry="25.1"/>
</svg>