<?xml version="1.0" encoding="UTF-8" standalone="no"?>
<svg width="164px" height="43px" viewBox="0 0 164 43" version="1.1" xmlns="http://www.w3.org/2000/svg" xmlns:xlink="http://www.w3.org/1999/xlink" xmlns:sketch="http://www.bohemiancoding.com/sketch/ns">
    <!-- Generator: Sketch 3.4.4 (17249) - http://www.bohemiancoding.com/sketch -->
    <title>belighted</title>
    <desc>Created with Sketch.</desc>
    <defs/>
    <g id="Page-1" stroke="none" stroke-width="1" fill="none" fill-rule="evenodd" sketch:type="MSPage">
        <g id="Home-page" sketch:type="MSArtboardGroup" transform="translate(-276.000000, -2711.000000)">
            <g id="Growing" sketch:type="MSLayerGroup" transform="translate(0.000000, 2569.000000)">
                <g id="belighted" transform="translate(276.000000, 142.000000)" sketch:type="MSShapeGroup">
                    <path d="M15.9050756,18.2498318 C15.9050756,14.7264848 13.582678,12.3908766 10.8353406,12.3908766 C8.08768878,12.3908766 5.80457937,14.7264848 5.80457937,18.2498318 L5.80457937,18.3292501 C5.80457937,21.8525972 8.08768878,24.1875622 10.8353406,24.1875622 C13.582678,24.1875622 15.9050756,21.8921457 15.9050756,18.3292501 L15.9050756,18.2498318 L15.9050756,18.2498318 Z M12.3443175,29.2941327 C9.2100709,29.2941327 7.2752111,27.8298762 5.88189833,26.1273644 L5.88189833,28.8986483 L0,28.8986483 L0,0 L5.88189833,0 L5.88189833,10.7279134 C7.31387059,8.74856274 9.28738986,7.28398473 12.3443175,7.28398473 C17.1817812,7.28398473 21.7869739,11.1635892 21.7869739,18.2498318 L21.7869739,18.3292501 C21.7869739,25.4148497 17.2594144,29.2941327 12.3443175,29.2941327 L12.3443175,29.2941327 L12.3443175,29.2941327 Z" id="Fill-3" fill="#87C4E0"/>
                    <path d="M32.8847588,12.2249661 C30.4466972,12.2249661 28.860087,14.0065747 28.395859,16.7383101 L37.2576803,16.7383101 C36.9094306,14.0464446 35.3614799,12.2249661 32.8847588,12.2249661 M42.9073074,20.4992693 L28.4728636,20.4992693 C29.0536988,23.2306831 30.9112395,24.6553913 33.5429129,24.6553913 C35.5164322,24.6553913 36.9480901,24.0219733 38.573674,22.4782984 L41.9401918,25.5260998 C40.0050177,27.9809961 37.2190208,29.4854441 33.4652796,29.4854441 C27.234503,29.4854441 22.6299391,25.0126132 22.6299391,18.519597 L22.6299391,18.4408218 C22.6299391,12.3834814 26.8479083,7.39523477 32.8847588,7.39523477 C39.8117203,7.39523477 42.9849407,12.8979325 42.9849407,18.9154029 L42.9849407,18.9948213 C42.9849407,19.5886907 42.9462812,19.9452697 42.9073074,20.4992693" id="Fill-4" fill="#87C4E0"/>
                    <path d="M44.9455734,28.8986483 L50.8277861,28.8986483 L50.8277861,0 L44.9455734,0 L44.9455734,28.8986483 L44.9455734,28.8986483 Z" id="Fill-5" fill="#1D2A36"/>
                    <path d="M54.2153622,7.68011208 L60.0975749,7.68011208 L60.0975749,28.8986483 L54.2153622,28.8986483 L54.2153622,7.68011208 L54.2153622,7.68011208 Z M54.0604101,0 L60.2522128,0 L60.2522128,5.34418249 L54.0604101,5.34418249 L54.0604101,0 L54.0604101,0 Z" id="Fill-6" fill="#1D2A36"/>
                    <path d="M78.2144126,17.2919881 C78.2144126,14.4020589 76.0086221,12.3831599 73.1453063,12.3831599 C70.2813617,12.3831599 68.114545,14.4020589 68.114545,17.2919881 L68.114545,17.3710849 C68.114545,20.300884 70.2813617,22.2805563 73.1453063,22.2805563 C76.0086221,22.2805563 78.2144126,20.2610141 78.2144126,17.3710849 L78.2144126,17.2919881 L78.2144126,17.2919881 Z M72.4481784,35.4231746 C69.0816606,35.4231746 65.9084404,34.6312415 63.2770813,33.2055688 L65.2892601,28.6928679 C67.4174173,29.9198338 69.5458887,30.6326701 72.2938547,30.6326701 C76.3182123,30.6326701 78.2144126,28.653641 78.2144126,24.8528118 L78.2144126,23.8242311 C76.4731645,25.961454 74.57665,27.2678383 71.4424033,27.2678383 C66.6052539,27.2678383 62.2323325,23.6657158 62.2323325,17.3710849 L62.2323325,17.2919881 C62.2323325,10.9581303 66.6828871,7.39523477 71.4424033,7.39523477 C74.6542832,7.39523477 76.5504835,8.78071593 78.1370937,10.5623245 L78.1370937,7.79104061 L84.018992,7.79104061 L84.018992,24.2193939 C84.018992,32.216215 80.1495867,35.4231746 72.4481784,35.4231746 L72.4481784,35.4231746 L72.4481784,35.4231746 Z" id="Fill-7" fill="#1D2A36"/>
                    <path d="M115.377801,29.2487966 C111.778698,29.2487966 109.340322,27.7845401 109.340322,22.8760335 L109.340322,12.8207648 L106.863601,12.8207648 L106.863601,7.67400298 L109.340322,7.67400298 L109.340322,2.25072362 L115.222221,2.25072362 L115.222221,7.67400298 L120.098344,7.67400298 L120.098344,12.8207648 L115.222221,12.8207648 L115.222221,21.8863581 C115.222221,23.2715177 115.803056,23.9444841 117.11905,23.9444841 C118.202458,23.9444841 119.169888,23.6679666 120.021339,23.1920993 L120.021339,28.0218307 C118.782664,28.7742155 117.351006,29.2487966 115.377801,29.2487966" id="Fill-8" fill="#1D2A36"/>
                    <path d="M130.632895,12.2249661 C128.195776,12.2249661 126.607909,14.0065747 126.144938,16.7383101 L135.005188,16.7383101 C134.658195,14.0464446 133.10993,12.2249661 130.632895,12.2249661 M140.656386,20.4992693 L126.222257,20.4992693 C126.802778,23.2306831 128.659376,24.6553913 131.291049,24.6553913 C133.263939,24.6553913 134.697483,24.0219733 136.322124,22.4782984 L139.688327,25.5260998 C137.753782,27.9809961 134.9681,29.4854441 131.21373,29.4854441 C124.983268,29.4854441 120.378704,25.0126132 120.378704,18.519597 L120.378704,18.4408218 C120.378704,12.3834814 124.596044,7.39523477 130.632895,7.39523477 C137.560171,7.39523477 140.733706,12.8979325 140.733706,18.9154029 L140.733706,18.9948213 C140.733706,19.5886907 140.695045,19.9452697 140.656386,20.4992693" id="Fill-9" fill="#1D2A36"/>
                    <path d="M157.735076,18.2498318 C157.735076,14.7264848 155.450709,12.3908766 152.703372,12.3908766 C149.956034,12.3908766 147.633636,14.6869363 147.633636,18.2498318 L147.633636,18.3292501 C147.633636,21.8525972 149.956034,24.1875622 152.703372,24.1875622 C155.450709,24.1875622 157.735076,21.8525972 157.735076,18.3292501 L157.735076,18.2498318 L157.735076,18.2498318 Z M157.657128,28.8986483 L157.657128,25.8502039 C156.225156,27.8298762 154.251637,29.2941327 151.19408,29.2941327 C146.35756,29.2941327 141.751423,25.4148497 141.751423,18.3292501 L141.751423,18.2498318 C141.751423,11.1635892 146.280241,7.28398473 151.19408,7.28398473 C154.328641,7.28398473 156.26413,8.74856274 157.657128,10.4510744 L157.657128,0 L163.539341,0 L163.539341,28.8986483 L157.657128,28.8986483 L157.657128,28.8986483 Z" id="Fill-10" fill="#1D2A36"/>
                    <path d="M99.8671783,28.8986483 L99.8671783,17.0624143 C99.8671783,14.2120336 98.5508702,12.747134 96.3064202,12.747134 C94.061656,12.747134 92.6306267,14.2120336 92.6306267,17.0624143 L92.6306267,28.8986483 L86.7480998,28.8986483 L86.7480998,0 L92.6306267,0 L92.6306267,10.6886865 C93.9843371,8.90707799 95.7262137,7.28398473 98.7061367,7.28398473 C103.157006,7.28398473 105.749077,10.2928807 105.749077,15.1618389 L105.749077,28.8986483 L99.8671783,28.8986483 L99.8671783,28.8986483 Z" id="Fill-11" fill="#1D2A36"/>
                    <path d="M2.65556048,31.1885988 C9.3832528,36.6369577 19.0858391,44.4980922 40.6505996,32.0120422 C34.1149475,38.7143756 19.0544087,49.473156 0.628609419,36.2035326 C3.51424096,34.3309306 2.69924884,32.155767 2.65556048,31.1885988" id="Fill-12" fill="#87C4E0"/>
                </g>
            </g>
        </g>
    </g>
</svg>