<?xml version="1.0" encoding="UTF-8" standalone="no"?>
<svg width="120px" height="32px" viewBox="0 0 120 32" version="1.1" xmlns="http://www.w3.org/2000/svg" xmlns:xlink="http://www.w3.org/1999/xlink" xmlns:sketch="http://www.bohemiancoding.com/sketch/ns">
    <!-- Generator: Sketch 3.0.4 (8053) - http://www.bohemiancoding.com/sketch -->
    <title>Logo</title>
    <desc>Created with Sketch.</desc>
    <defs/>
    <g id="Page-1" stroke="none" stroke-width="1" fill="none" fill-rule="evenodd" sketch:type="MSPage">
        <g id="Packages" sketch:type="MSArtboardGroup" transform="translate(-130.000000, -29.000000)">
            <g id="Hero-+-Header" sketch:type="MSLayerGroup">
                <g id="Header" transform="translate(130.000000, 25.000000)" sketch:type="MSShapeGroup">
                    <g id="Logo" transform="translate(0.000000, 4.000000)">
                        <path d="M11.5805308,13.3297652 C11.5805308,10.7562955 9.88958654,9.05035606 7.88924231,9.05035606 C5.88866923,9.05035606 4.22633077,10.7562955 4.22633077,13.3297652 L4.22633077,13.3877727 C4.22633077,15.9612424 5.88866923,17.6667121 7.88924231,17.6667121 C9.88958654,17.6667121 11.5805308,15.9901288 11.5805308,13.3877727 L11.5805308,13.3297652 Z M8.98793269,21.3965758 C6.70587885,21.3965758 5.29710192,20.3270758 4.28262692,19.083553 L4.28262692,21.1077121 L0,21.1077121 L0,0 L4.28262692,0 L4.28262692,7.8357197 C5.32525,6.38999242 6.762175,5.32025758 8.98793269,5.32025758 C12.5101038,5.32025758 15.8631577,8.15393939 15.8631577,13.3297652 L15.8631577,13.3877727 C15.8631577,18.5631288 12.5666288,21.3965758 8.98793269,21.3965758 L8.98793269,21.3965758 Z" id="Fill-3" fill="#87C4E0"/>
                        <path d="M23.9434865,8.92917424 C22.1683269,8.92917424 21.0131115,10.2304697 20.6751058,12.2257424 L27.1274231,12.2257424 C26.8738615,10.2595909 25.7467942,8.92917424 23.9434865,8.92917424 M31.2409327,14.9727652 L20.7311731,14.9727652 C21.1540808,16.967803 22.5065615,18.0084167 24.4226904,18.0084167 C25.8596154,18.0084167 26.9020096,17.5457652 28.0856019,16.4182576 L30.5367731,18.6443864 C29.1277673,20.4374545 27.099275,21.5363106 24.3661654,21.5363106 C19.8295192,21.5363106 16.4769231,18.2693333 16.4769231,13.526803 L16.4769231,13.4692652 C16.4769231,9.04495455 19.5480385,5.40151515 23.9434865,5.40151515 C28.9870269,5.40151515 31.2974577,9.42071212 31.2974577,13.8159015 L31.2974577,13.8739091 C31.2974577,14.3076742 31.2693096,14.5681212 31.2409327,14.9727652" id="Fill-4" fill="#87C4E0"/>
                        <path d="M32.725,21.1077121 L37.0078558,21.1077121 L37.0078558,0 L32.725,0 L32.725,21.1077121 Z" id="Fill-5" fill="#FFFFFF"/>
                        <path d="M39.4743596,5.60959091 L43.7572154,5.60959091 L43.7572154,21.1077121 L39.4743596,21.1077121 L39.4743596,5.60959091 Z M39.3615385,0 L43.8698077,0 L43.8698077,3.90341667 L39.3615385,3.90341667 L39.3615385,0 Z" id="Fill-6" fill="#FFFFFF"/>
                        <path d="M56.9481365,12.6301515 C56.9481365,10.5193333 55.3420942,9.0447197 53.2573058,9.0447197 C51.1720596,9.0447197 49.5943942,10.5193333 49.5943942,12.6301515 L49.5943942,12.6879242 C49.5943942,14.8278636 51.1720596,16.2738258 53.2573058,16.2738258 C55.3420942,16.2738258 56.9481365,14.7987424 56.9481365,12.6879242 L56.9481365,12.6301515 Z M52.749725,25.8732576 C50.2985538,25.8732576 47.9881231,25.2948258 46.0722231,24.2535076 L47.5372962,20.9574091 C49.0868135,21.8535909 50.6365596,22.37425 52.6373615,22.37425 C55.5675077,22.37425 56.9481365,20.9287576 56.9481365,18.1526136 L56.9481365,17.4013333 C55.6803288,18.9623712 54.2994712,19.9165606 52.0174173,19.9165606 C48.495475,19.9165606 45.3115385,17.285553 45.3115385,12.6879242 L45.3115385,12.6301515 C45.3115385,8.00387121 48.552,5.40151515 52.0174173,5.40151515 C54.3559962,5.40151515 55.736625,6.41347727 56.8918404,7.71477273 L56.8918404,5.69061364 L61.1744673,5.69061364 L61.1744673,17.6899621 C61.1744673,23.5308788 58.3571423,25.8732576 52.749725,25.8732576 L52.749725,25.8732576 Z" id="Fill-7" fill="#FFFFFF"/>
                        <path d="M84.0069058,21.3634621 C81.3863885,21.3634621 79.611,20.2939621 79.611,16.7087652 L79.611,9.36434848 L77.8076923,9.36434848 L77.8076923,5.60512879 L79.611,5.60512879 L79.611,1.64393939 L83.8936269,1.64393939 L83.8936269,5.60512879 L87.4439462,5.60512879 L87.4439462,9.36434848 L83.8936269,9.36434848 L83.8936269,15.9859015 C83.8936269,16.9976288 84.3165346,17.4891667 85.2747135,17.4891667 C86.0635462,17.4891667 86.7679346,17.287197 87.3878788,16.9396212 L87.3878788,20.4672803 C86.4859962,21.0168258 85.4436019,21.3634621 84.0069058,21.3634621" id="Fill-8" fill="#FFFFFF"/>
                        <path d="M95.1141827,8.92917424 C93.3397096,8.92917424 92.1835788,10.2304697 91.8464885,12.2257424 L98.2976615,12.2257424 C98.0450154,10.2595909 96.9177192,8.92917424 95.1141827,8.92917424 M102.412315,14.9727652 L91.9027846,14.9727652 C92.3254635,16.967803 93.6772577,18.0084167 95.5933865,18.0084167 C97.0298538,18.0084167 98.0736212,17.5457652 99.2565269,16.4182576 L101.707469,18.6443864 C100.298921,20.4374545 98.2706577,21.5363106 95.5370904,21.5363106 C91.0006731,21.5363106 87.6480769,18.2693333 87.6480769,13.526803 L87.6480769,13.4692652 C87.6480769,9.04495455 90.7187346,5.40151515 95.1141827,5.40151515 C100.157952,5.40151515 102.468612,9.42071212 102.468612,13.8159015 L102.468612,13.8739091 C102.468612,14.3076742 102.440463,14.5681212 102.412315,14.9727652" id="Fill-9" fill="#FFFFFF"/>
                        <path d="M114.847358,13.3297652 C114.847358,10.7562955 113.184104,9.05035606 111.18376,9.05035606 C109.183415,9.05035606 107.492471,10.7274091 107.492471,13.3297652 L107.492471,13.3877727 C107.492471,15.9612424 109.183415,17.6667121 111.18376,17.6667121 C113.184104,17.6667121 114.847358,15.9612424 114.847358,13.3877727 L114.847358,13.3297652 Z M114.790604,21.1077121 L114.790604,18.8811136 C113.747981,20.3270758 112.311056,21.3965758 110.08484,21.3965758 C106.563356,21.3965758 103.209615,18.5631288 103.209615,13.3877727 L103.209615,13.3297652 C103.209615,8.15393939 106.50706,5.32025758 110.08484,5.32025758 C112.367123,5.32025758 113.776358,6.38999242 114.790604,7.63351515 L114.790604,0 L119.07346,0 L119.07346,21.1077121 L114.790604,21.1077121 Z" id="Fill-10" fill="#FFFFFF"/>
                        <path d="M72.7135769,21.1077121 L72.7135769,12.4624697 C72.7135769,10.3805379 71.7551692,9.31056818 70.1209788,9.31056818 C68.4865596,9.31056818 67.4446231,10.3805379 67.4446231,12.4624697 L67.4446231,21.1077121 L63.1615385,21.1077121 L63.1615385,0 L67.4446231,0 L67.4446231,7.80706818 C68.4302635,6.50577273 69.6985288,5.32025758 71.8682192,5.32025758 C75.1089096,5.32025758 76.9962038,7.5179697 76.9962038,11.0742803 L76.9962038,21.1077121 L72.7135769,21.1077121 Z" id="Fill-11" fill="#FFFFFF"/>
                        <path d="M1.93352115,22.780303 C6.83197308,26.7598106 13.8964538,32.5016212 29.5978173,23.38175 C24.8391904,28.2771667 13.8735692,36.1354318 0.457692308,26.4432348 C2.55872885,25.0754773 1.96533077,23.4867273 1.93352115,22.780303" id="Fill-12" fill="#87C4E0"/>
                    </g>
                </g>
            </g>
        </g>
    </g>
</svg>